%
M48
M72
T01C0.03150
T02C0.03543
T03C0.03898
T04C0.05118
%
T01
X150000Y10000
X200000Y10000
X210000Y10000
X220000Y10000
X230000Y10000
X200000Y20000
X210000Y20000
X220000Y20000
X230000Y20000
X95000Y200000
X115000Y200000
X125000Y200000
X355000Y55000
X370000Y70000
X345000Y55000
X370000Y80000
X335000Y55000
X370000Y90000
X325000Y55000
X370000Y100000
X315000Y55000
X370000Y60000
X370000Y50000
X305000Y55000
X295000Y55000
X370000Y40000
X285000Y55000
X285000Y135000
X295000Y135000
X380000Y40000
X305000Y135000
X380000Y50000
X315000Y135000
X380000Y60000
X325000Y135000
X380000Y100000
X380000Y90000
X335000Y135000
X345000Y135000
X380000Y80000
X355000Y135000
X380000Y70000
X305000Y185000
X315000Y185000
X325000Y185000
X180000Y10000
X285000Y105000
X285000Y185000
X335000Y185000
X305000Y105000
X315000Y105000
X325000Y105000
X335000Y105000
X380000Y30000
X370000Y30000
X295000Y105000
X355000Y105000
X355000Y185000
X345000Y105000
X345000Y185000
X370000Y200000
X380000Y200000
X380000Y190000
X370000Y190000
X105000Y200000
X295000Y185000
X160000Y10000
X170000Y10000
T02
X95000Y185000
X105000Y185000
X250000Y10000
X260000Y10000
X270000Y10000
X280000Y10000
X305000Y10000
X315000Y10000
X325000Y10000
X335000Y10000
X395000Y155000
X395000Y145000
X395000Y135000
X355000Y200000
X255000Y200000
X330000Y200000
X155000Y170000
X200000Y195000
X165000Y170000
X230000Y175000
X255000Y190000
X230000Y185000
X115000Y185000
X230000Y195000
X200000Y185000
X180000Y190000
X245000Y200000
X200000Y175000
X180000Y165000
T03
X155000Y190000
X165000Y190000
T04
X151378Y130906
X130000Y125000
X198622Y130906
X151378Y82874
X198622Y82874
X175000Y75000
X130000Y115000
M30
